<?xml version="1.0" encoding="UTF-8" standalone="no"?>
<!DOCTYPE svg PUBLIC "-//W3C//DTD SVG 1.1//EN" "http://www.w3.org/Graphics/SVG/1.1/DTD/svg11.dtd">
<svg width="100%" height="100%" viewBox="0 0 773 189" version="1.1" xmlns="http://www.w3.org/2000/svg" xmlns:xlink="http://www.w3.org/1999/xlink" xml:space="preserve" xmlns:serif="http://www.serif.com/" style="fill-rule:evenodd;clip-rule:evenodd;stroke-linejoin:round;stroke-miterlimit:2;">
    <g transform="matrix(13.2401,0,0,13.2401,-8589.13,-9036.76)">
        <path d="M667.011,683.977L667.011,683.532L669.095,683.532L674.305,690.322L674.305,685.405C674.305,684.445 673.88,683.965 673.029,683.965L673.029,683.532L676.073,683.532L676.073,683.977L675.956,683.977C675.597,683.977 675.316,684.094 675.113,684.328C674.91,684.562 674.809,684.886 674.809,685.3L674.809,692.184L674.258,692.184L668.85,685.112L668.85,690.322C668.85,691.267 669.337,691.739 670.313,691.739L670.313,692.184L667.011,692.184L667.011,691.739C667.41,691.739 667.733,691.614 667.983,691.364C668.233,691.114 668.358,690.79 668.358,690.392L668.358,684.527C668.116,684.277 667.991,684.148 667.983,684.141C667.843,684.031 667.651,683.977 667.41,683.977L667.011,683.977Z" style="fill:rgb(195,191,181);fill-rule:nonzero;stroke:rgb(137,137,137);stroke-width:0.04px;"/>
    </g>
    <g transform="matrix(13.2401,0,0,13.2401,-8589.13,-9036.76)">
        <path d="M679.117,686.529C679.866,686.529 680.489,686.798 680.984,687.337C681.48,687.875 681.728,688.582 681.728,689.456C681.728,690.314 681.474,691.011 680.967,691.546C680.459,692.08 679.839,692.347 679.105,692.347C678.371,692.347 677.761,692.076 677.273,691.534C676.785,690.991 676.541,690.295 676.541,689.444C676.541,688.593 676.783,687.895 677.267,687.348C677.751,686.802 678.368,686.529 679.117,686.529ZM679.117,686.95C678.641,686.95 678.272,687.159 678.011,687.577C677.749,687.994 677.618,688.597 677.618,689.386C677.618,690.221 677.747,690.853 678.005,691.282C678.262,691.711 678.637,691.926 679.129,691.926C679.62,691.926 679.997,691.707 680.258,691.27C680.52,690.833 680.651,690.197 680.651,689.362C680.651,688.574 680.516,687.975 680.247,687.565C679.977,687.155 679.601,686.95 679.117,686.95Z" style="fill:rgb(195,191,181);fill-rule:nonzero;stroke:rgb(137,137,137);stroke-width:0.04px;"/>
    </g>
    <g transform="matrix(13.2401,0,0,13.2401,-8589.13,-9036.76)">
        <path d="M682.137,687.103L682.137,686.693L684.83,686.693L684.83,687.103C684.541,687.103 684.331,687.124 684.198,687.167C684.065,687.21 683.999,687.306 683.999,687.454C683.999,687.516 684.018,687.598 684.057,687.7L685.509,690.919L686.832,687.793L686.879,687.629C686.879,687.473 686.807,687.354 686.662,687.272C686.518,687.19 686.305,687.134 686.024,687.103L686.024,686.693L688.295,686.693L688.295,687.103C688.077,687.126 687.899,687.183 687.763,687.272C687.626,687.362 687.515,687.505 687.429,687.7L685.415,692.347L685.099,692.347L682.945,687.571C682.859,687.376 682.758,687.249 682.641,687.19C682.524,687.132 682.356,687.103 682.137,687.103Z" style="fill:rgb(195,191,181);fill-rule:nonzero;stroke:rgb(137,137,137);stroke-width:0.04px;"/>
    </g>
    <g transform="matrix(13.2401,0,0,13.2401,-8589.13,-9036.76)">
        <path d="M689.993,687.489C689.993,687.52 690.059,687.649 690.192,687.875C690.262,687.992 690.297,688.098 690.297,688.191C690.297,688.582 690.094,688.777 689.689,688.777C689.486,688.777 689.32,688.716 689.191,688.595C689.062,688.474 688.998,688.301 688.998,688.074C688.998,687.668 689.224,687.311 689.677,687.003C690.13,686.695 690.695,686.541 691.374,686.541C691.991,686.541 692.477,686.675 692.832,686.945C693.187,687.214 693.365,687.563 693.365,687.992L693.365,691.001C693.365,691.508 693.521,691.762 693.833,691.762C693.919,691.762 693.999,691.748 694.073,691.721C694.147,691.694 694.227,691.649 694.313,691.587L694.535,691.903C694.254,692.199 693.942,692.347 693.599,692.347C693.06,692.347 692.674,692.02 692.44,691.364C692.096,691.723 691.8,691.969 691.55,692.102C691.246,692.266 690.875,692.347 690.438,692.347C689.899,692.347 689.48,692.23 689.179,691.996C688.879,691.762 688.729,691.45 688.729,691.06C688.729,690.506 689.051,690.035 689.694,689.649C690.338,689.263 691.238,689.003 692.393,688.87L692.393,688.051C692.393,687.731 692.274,687.469 692.036,687.267C691.798,687.064 691.499,686.962 691.14,686.962C690.836,686.962 690.569,687.023 690.338,687.144C690.108,687.265 689.993,687.38 689.993,687.489ZM692.393,690.053L692.393,689.268C691.488,689.393 690.83,689.583 690.42,689.836C690.011,690.09 689.806,690.459 689.806,690.943C689.806,691.239 689.886,691.471 690.046,691.639C690.206,691.807 690.422,691.891 690.695,691.891C691.148,691.891 691.544,691.717 691.884,691.37C692.223,691.023 692.393,690.584 692.393,690.053Z" style="fill:rgb(195,191,181);fill-rule:nonzero;stroke:rgb(137,137,137);stroke-width:0.04px;"/>
    </g>
    <g transform="matrix(13.2401,0,0,13.2401,-8589.13,-9036.76)">
        <path d="M694.851,683.965L694.851,683.532L696.947,683.415L696.947,689.409L698.738,687.852C698.809,687.789 698.867,687.725 698.914,687.659C698.961,687.592 698.984,687.528 698.984,687.466C698.984,687.231 698.691,687.114 698.106,687.114L698.106,686.693L701.021,686.693L701.021,687.114C700.475,687.114 700.034,687.267 699.698,687.571L698.434,688.683L700.471,691.493C700.604,691.657 700.822,691.739 701.127,691.739L701.431,691.739L701.431,692.184L698.434,692.184L698.434,691.739L698.738,691.739C698.926,691.739 699.066,691.725 699.16,691.698C699.253,691.67 699.3,691.618 699.3,691.54C699.3,691.469 699.281,691.415 699.242,691.376L697.755,689.292L696.947,690.006L696.947,691.376C696.947,691.618 697.131,691.739 697.497,691.739L697.884,691.739L697.884,692.184L694.933,692.184L694.933,691.739L695.402,691.739C695.784,691.739 695.975,691.587 695.975,691.282L695.975,684.527C695.975,684.152 695.702,683.965 695.156,683.965L694.851,683.965Z" style="fill:rgb(195,191,181);fill-rule:nonzero;stroke:rgb(137,137,137);stroke-width:0.04px;"/>
    </g>
    <g transform="matrix(13.2401,0,0,13.2401,-8589.13,-9036.76)">
        <path d="M704.451,686.529C705.201,686.529 705.823,686.798 706.319,687.337C706.814,687.875 707.062,688.582 707.062,689.456C707.062,690.314 706.809,691.011 706.301,691.546C705.794,692.08 705.173,692.347 704.44,692.347C703.706,692.347 703.095,692.076 702.608,691.534C702.12,690.991 701.876,690.295 701.876,689.444C701.876,688.593 702.118,687.895 702.602,687.348C703.086,686.802 703.702,686.529 704.451,686.529ZM704.451,686.95C703.975,686.95 703.607,687.159 703.345,687.577C703.084,687.994 702.953,688.597 702.953,689.386C702.953,690.221 703.082,690.853 703.339,691.282C703.597,691.711 703.971,691.926 704.463,691.926C704.955,691.926 705.331,691.707 705.593,691.27C705.854,690.833 705.985,690.197 705.985,689.362C705.985,688.574 705.851,687.975 705.581,687.565C705.312,687.155 704.935,686.95 704.451,686.95Z" style="fill:rgb(195,191,181);fill-rule:nonzero;stroke:rgb(137,137,137);stroke-width:0.04px;"/>
    </g>
    <g transform="matrix(1.92374,0,0,1.92374,-1412.73,-1009.89)">
        <path d="M863.89,615.578C864.316,615.578 864.661,615.531 864.927,615.437C865.431,615.257 865.683,614.923 865.683,614.435C865.683,614.15 865.558,613.929 865.308,613.773C865.058,613.621 864.665,613.486 864.13,613.369L863.216,613.164C862.318,612.96 861.696,612.74 861.353,612.501C860.771,612.103 860.48,611.48 860.48,610.632C860.48,609.859 860.761,609.216 861.323,608.705C861.886,608.193 862.712,607.937 863.802,607.937C864.712,607.937 865.488,608.178 866.131,608.661C866.774,609.143 867.11,609.843 867.142,610.761L865.407,610.761C865.376,610.242 865.15,609.873 864.728,609.654C864.446,609.509 864.097,609.437 863.679,609.437C863.214,609.437 862.843,609.531 862.566,609.718C862.288,609.906 862.15,610.167 862.15,610.503C862.15,610.812 862.286,611.042 862.56,611.195C862.735,611.296 863.11,611.416 863.685,611.552L865.173,611.91C865.825,612.066 866.318,612.275 866.65,612.537C867.165,612.943 867.423,613.531 867.423,614.3C867.423,615.089 867.121,615.745 866.518,616.266C865.914,616.788 865.062,617.048 863.96,617.048C862.835,617.048 861.95,616.791 861.306,616.278C860.661,615.764 860.339,615.058 860.339,614.16L862.062,614.16C862.116,614.554 862.224,614.849 862.384,615.044C862.677,615.4 863.179,615.578 863.89,615.578Z" style="fill:rgb(195,191,181);fill-rule:nonzero;stroke:rgb(137,137,137);stroke-width:0.26px;"/>
    </g>
    <g transform="matrix(1.92374,0,0,1.92374,-1412.73,-1009.89)">
        <path d="M875.459,617.066C874.225,617.066 873.281,616.73 872.629,616.058C871.754,615.234 871.317,614.046 871.317,612.496C871.317,610.914 871.754,609.726 872.629,608.933C873.281,608.261 874.225,607.925 875.459,607.925C876.694,607.925 877.637,608.261 878.289,608.933C879.16,609.726 879.596,610.914 879.596,612.496C879.596,614.046 879.16,615.234 878.289,616.058C877.637,616.73 876.694,617.066 875.459,617.066ZM877.164,614.746C877.582,614.218 877.791,613.468 877.791,612.496C877.791,611.527 877.581,610.778 877.161,610.249C876.741,609.719 876.174,609.455 875.459,609.455C874.744,609.455 874.174,609.718 873.748,610.246C873.323,610.773 873.11,611.523 873.11,612.496C873.11,613.468 873.323,614.218 873.748,614.746C874.174,615.273 874.744,615.537 875.459,615.537C876.174,615.537 876.742,615.273 877.164,614.746Z" style="fill:rgb(195,191,181);fill-rule:nonzero;stroke:rgb(137,137,137);stroke-width:0.26px;"/>
    </g>
    <g transform="matrix(1.92374,0,0,1.92374,-1412.73,-1009.89)">
        <path d="M889.976,609.718L885.646,609.718L885.646,611.705L889.437,611.705L889.437,613.205L885.646,613.205L885.646,616.826L883.853,616.826L883.853,608.201L889.976,608.201L889.976,609.718Z" style="fill:rgb(195,191,181);fill-rule:nonzero;stroke:rgb(137,137,137);stroke-width:0.26px;"/>
    </g>
    <g transform="matrix(1.92374,0,0,1.92374,-1412.73,-1009.89)">
        <path d="M900.338,608.189L900.338,609.718L897.754,609.718L897.754,616.826L895.938,616.826L895.938,609.718L893.342,609.718L893.342,608.189L900.338,608.189Z" style="fill:rgb(195,191,181);fill-rule:nonzero;stroke:rgb(137,137,137);stroke-width:0.26px;"/>
    </g>
    <g transform="matrix(1.92374,0,0,1.92374,-1412.73,-1009.89)">
        <path d="M912.675,608.189L914.509,608.189L912.078,616.826L910.355,616.826L909.312,611.775L909.007,610.105L908.703,611.775L907.66,616.826L905.984,616.826L903.535,608.189L905.451,608.189L906.593,613.134L906.839,614.511L907.091,613.164L908.064,608.189L909.968,608.189L910.994,613.134L911.257,614.511L911.521,613.187L912.675,608.189Z" style="fill:rgb(195,191,181);fill-rule:nonzero;stroke:rgb(137,137,137);stroke-width:0.26px;"/>
    </g>
    <g transform="matrix(1.92374,0,0,1.92374,-1412.73,-1009.89)">
        <path d="M922.88,615.05L919.698,615.05L919.1,616.826L917.214,616.826L920.296,608.189L922.335,608.189L925.393,616.826L923.436,616.826L922.88,615.05ZM922.376,613.562L921.298,610.164L920.184,613.562L922.376,613.562Z" style="fill:rgb(195,191,181);fill-rule:nonzero;stroke:rgb(137,137,137);stroke-width:0.26px;"/>
    </g>
    <g transform="matrix(1.92374,0,0,1.92374,-1412.73,-1009.89)">
        <path d="M933.037,613.439L931.174,613.439L931.174,616.826L929.41,616.826L929.41,608.189L933.646,608.189C934.252,608.201 934.718,608.275 935.044,608.412C935.37,608.548 935.646,608.75 935.873,609.015C936.06,609.234 936.209,609.476 936.318,609.742C936.428,610.007 936.482,610.31 936.482,610.65C936.482,611.06 936.379,611.463 936.172,611.86C935.965,612.256 935.623,612.537 935.146,612.701C935.545,612.861 935.827,613.088 935.993,613.383C936.159,613.678 936.242,614.128 936.242,614.734L936.242,615.314C936.242,615.708 936.258,615.976 936.289,616.117C936.336,616.339 936.445,616.503 936.617,616.609L936.617,616.826L934.631,616.826C934.576,616.634 934.537,616.48 934.514,616.363C934.467,616.121 934.441,615.873 934.437,615.619L934.426,614.816C934.418,614.265 934.317,613.898 934.124,613.714C933.931,613.531 933.568,613.439 933.037,613.439ZM934.133,611.869C934.492,611.705 934.672,611.38 934.672,610.896C934.672,610.373 934.498,610.021 934.15,609.841C933.955,609.74 933.662,609.689 933.271,609.689L931.174,609.689L931.174,612.009L933.219,612.009C933.625,612.009 933.93,611.962 934.133,611.869Z" style="fill:rgb(195,191,181);fill-rule:nonzero;stroke:rgb(137,137,137);stroke-width:0.26px;"/>
    </g>
    <g transform="matrix(1.92374,0,0,1.92374,-1412.73,-1009.89)">
        <path d="M946.927,613.052L942.731,613.052L942.731,615.273L947.513,615.273L947.513,616.826L940.968,616.826L940.968,608.189L947.302,608.189L947.302,609.718L942.731,609.718L942.731,611.552L946.927,611.552L946.927,613.052Z" style="fill:rgb(195,191,181);fill-rule:nonzero;stroke:rgb(137,137,137);stroke-width:0.26px;"/>
    </g>
    <g transform="matrix(1.92374,0,0,1.92374,-1412.73,-1009.89)">
        <path d="M958.867,617.03C958.02,617.03 957.359,616.78 956.883,616.282C956.407,615.783 956.169,615.229 956.169,614.621C956.169,614.119 956.294,613.688 956.543,613.329C956.793,612.97 957.201,612.615 957.767,612.264L957.943,612.156C957.701,611.884 957.514,611.606 957.382,611.323C957.25,611.04 957.184,610.745 957.184,610.439C957.184,609.831 957.388,609.356 957.796,609.014C958.204,608.672 958.733,608.501 959.382,608.501C959.976,608.501 960.466,608.676 960.853,609.025C961.24,609.375 961.434,609.821 961.434,610.365C961.434,610.857 961.318,611.255 961.085,611.561C960.853,611.867 960.512,612.15 960.062,612.411L961.247,613.873C961.383,613.677 961.488,613.463 961.561,613.233C961.635,613.002 961.674,612.759 961.678,612.502L963.111,612.502C963.089,613.008 962.968,613.52 962.749,614.038C962.628,614.328 962.431,614.65 962.159,615.001L963.678,616.826L961.717,616.826L961.139,616.117C960.86,616.378 960.599,616.571 960.357,616.695C959.926,616.918 959.43,617.03 958.867,617.03ZM958.776,613.188C958.372,613.456 958.105,613.692 957.974,613.896C957.844,614.1 957.779,614.325 957.779,614.57C957.779,614.846 957.891,615.099 958.116,615.33C958.341,615.56 958.629,615.675 958.98,615.675C959.245,615.675 959.495,615.614 959.731,615.491C959.967,615.368 960.159,615.231 960.306,615.08L958.776,613.188ZM958.668,610.382C958.668,610.534 958.721,610.692 958.827,610.858C958.895,610.968 959.042,611.163 959.269,611.442C959.496,611.283 959.658,611.149 959.756,611.04C959.945,610.836 960.04,610.615 960.04,610.377C960.04,610.203 959.983,610.048 959.87,609.912C959.756,609.776 959.585,609.708 959.354,609.708C959.211,609.708 959.076,609.748 958.952,609.827C958.763,609.944 958.668,610.129 958.668,610.382Z" style="fill:rgb(195,191,181);fill-rule:nonzero;stroke:rgb(137,137,137);stroke-width:0.26px;"/>
    </g>
    <g transform="matrix(1.92374,0,0,1.92374,-1412.73,-1009.89)">
        <path d="M975.997,616.826L972.276,616.826L972.276,608.189L975.997,608.189C976.532,608.197 976.978,608.259 977.333,608.376C977.939,608.576 978.429,608.941 978.804,609.472C979.105,609.902 979.31,610.367 979.419,610.867C979.528,611.367 979.583,611.843 979.583,612.296C979.583,613.445 979.353,614.417 978.892,615.214C978.267,616.289 977.302,616.826 975.997,616.826ZM977.339,610.392C977.062,609.923 976.513,609.689 975.693,609.689L974.028,609.689L974.028,615.326L975.693,615.326C976.544,615.326 977.138,614.906 977.474,614.066C977.657,613.605 977.749,613.056 977.749,612.419C977.749,611.541 977.612,610.865 977.339,610.392Z" style="fill:rgb(195,191,181);fill-rule:nonzero;stroke:rgb(137,137,137);stroke-width:0.26px;"/>
    </g>
    <g transform="matrix(1.92374,0,0,1.92374,-1412.73,-1009.89)">
        <rect x="983.682" y="608.189" width="1.793" height="8.637" style="fill:rgb(195,191,181);fill-rule:nonzero;stroke:rgb(137,137,137);stroke-width:0.26px;"/>
    </g>
    <g transform="matrix(1.92374,0,0,1.92374,-1412.73,-1009.89)">
        <path d="M995.333,616.615C994.857,616.908 994.271,617.054 993.576,617.054C992.431,617.054 991.494,616.658 990.763,615.865C990.001,615.068 989.62,613.978 989.62,612.595C989.62,611.197 990.005,610.076 990.775,609.232C991.544,608.388 992.562,607.966 993.828,607.966C994.925,607.966 995.807,608.245 996.473,608.801C997.139,609.358 997.521,610.052 997.619,610.884L995.843,610.884C995.706,610.294 995.372,609.882 994.841,609.648C994.544,609.519 994.214,609.455 993.851,609.455C993.156,609.455 992.584,609.717 992.137,610.243C991.69,610.768 991.466,611.558 991.466,612.613C991.466,613.675 991.708,614.427 992.193,614.869C992.677,615.31 993.228,615.531 993.845,615.531C994.451,615.531 994.947,615.356 995.333,615.006C995.72,614.657 995.958,614.199 996.048,613.632L994.05,613.632L994.05,612.191L997.648,612.191L997.648,616.826L996.453,616.826L996.271,615.748C995.923,616.158 995.611,616.447 995.333,616.615Z" style="fill:rgb(195,191,181);fill-rule:nonzero;stroke:rgb(137,137,137);stroke-width:0.26px;"/>
    </g>
    <g transform="matrix(1.92374,0,0,1.92374,-1412.73,-1009.89)">
        <rect x="1002.11" y="608.189" width="1.793" height="8.637" style="fill:rgb(195,191,181);fill-rule:nonzero;stroke:rgb(137,137,137);stroke-width:0.26px;"/>
    </g>
    <g transform="matrix(1.92374,0,0,1.92374,-1412.73,-1009.89)">
        <path d="M1014.74,608.189L1014.74,609.718L1012.16,609.718L1012.16,616.826L1010.34,616.826L1010.34,609.718L1007.74,609.718L1007.74,608.189L1014.74,608.189Z" style="fill:rgb(195,191,181);fill-rule:nonzero;stroke:rgb(137,137,137);stroke-width:0.26px;"/>
    </g>
    <g transform="matrix(1.92374,0,0,1.92374,-1412.73,-1009.89)">
        <path d="M1022.85,615.05L1019.67,615.05L1019.07,616.826L1017.18,616.826L1020.26,608.189L1022.3,608.189L1025.36,616.826L1023.4,616.826L1022.85,615.05ZM1022.34,613.562L1021.26,610.164L1020.15,613.562L1022.34,613.562Z" style="fill:rgb(195,191,181);fill-rule:nonzero;stroke:rgb(137,137,137);stroke-width:0.26px;"/>
    </g>
    <g transform="matrix(1.92374,0,0,1.92374,-1412.73,-1009.89)">
        <path d="M1029.34,608.189L1031.14,608.189L1031.14,615.273L1035.42,615.273L1035.42,616.826L1029.34,616.826L1029.34,608.189Z" style="fill:rgb(195,191,181);fill-rule:nonzero;stroke:rgb(137,137,137);stroke-width:0.26px;"/>
    </g>
    <g transform="matrix(1.92374,0,0,1.92374,-1412.73,-1009.89)">
        <path d="M1047.34,615.578C1047.76,615.578 1048.11,615.531 1048.37,615.437C1048.88,615.257 1049.13,614.923 1049.13,614.435C1049.13,614.15 1049,613.929 1048.75,613.773C1048.5,613.621 1048.11,613.486 1047.58,613.369L1046.66,613.164C1045.76,612.96 1045.14,612.74 1044.8,612.501C1044.22,612.103 1043.93,611.48 1043.93,610.632C1043.93,609.859 1044.21,609.216 1044.77,608.705C1045.33,608.193 1046.16,607.937 1047.25,607.937C1048.16,607.937 1048.93,608.178 1049.58,608.661C1050.22,609.143 1050.56,609.843 1050.59,610.761L1048.85,610.761C1048.82,610.242 1048.6,609.873 1048.17,609.654C1047.89,609.509 1047.54,609.437 1047.12,609.437C1046.66,609.437 1046.29,609.531 1046.01,609.718C1045.73,609.906 1045.6,610.167 1045.6,610.503C1045.6,610.812 1045.73,611.042 1046.01,611.195C1046.18,611.296 1046.56,611.416 1047.13,611.552L1048.62,611.91C1049.27,612.066 1049.76,612.275 1050.1,612.537C1050.61,612.943 1050.87,613.531 1050.87,614.3C1050.87,615.089 1050.57,615.745 1049.96,616.266C1049.36,616.788 1048.51,617.048 1047.41,617.048C1046.28,617.048 1045.4,616.791 1044.75,616.278C1044.11,615.764 1043.79,615.058 1043.79,614.16L1045.51,614.16C1045.56,614.554 1045.67,614.849 1045.83,615.044C1046.12,615.4 1046.62,615.578 1047.34,615.578Z" style="fill:rgb(195,191,181);fill-rule:nonzero;stroke:rgb(137,137,137);stroke-width:0.26px;"/>
    </g>
    <g transform="matrix(1.92374,0,0,1.92374,-1412.73,-1009.89)">
        <path d="M1058.9,617.066C1057.67,617.066 1056.73,616.73 1056.08,616.058C1055.2,615.234 1054.76,614.046 1054.76,612.496C1054.76,610.914 1055.2,609.726 1056.08,608.933C1056.73,608.261 1057.67,607.925 1058.9,607.925C1060.14,607.925 1061.08,608.261 1061.74,608.933C1062.61,609.726 1063.04,610.914 1063.04,612.496C1063.04,614.046 1062.61,615.234 1061.74,616.058C1061.08,616.73 1060.14,617.066 1058.9,617.066ZM1060.61,614.746C1061.03,614.218 1061.24,613.468 1061.24,612.496C1061.24,611.527 1061.03,610.778 1060.61,610.249C1060.19,609.719 1059.62,609.455 1058.9,609.455C1058.19,609.455 1057.62,609.718 1057.19,610.246C1056.77,610.773 1056.56,611.523 1056.56,612.496C1056.56,613.468 1056.77,614.218 1057.19,614.746C1057.62,615.273 1058.19,615.537 1058.9,615.537C1059.62,615.537 1060.19,615.273 1060.61,614.746Z" style="fill:rgb(195,191,181);fill-rule:nonzero;stroke:rgb(137,137,137);stroke-width:0.26px;"/>
    </g>
    <g transform="matrix(1.92374,0,0,1.92374,-1412.73,-1009.89)">
        <path d="M1067.3,608.189L1069.1,608.189L1069.1,615.273L1073.38,615.273L1073.38,616.826L1067.3,616.826L1067.3,608.189Z" style="fill:rgb(195,191,181);fill-rule:nonzero;stroke:rgb(137,137,137);stroke-width:0.26px;"/>
    </g>
    <g transform="matrix(1.92374,0,0,1.92374,-1412.73,-1009.89)">
        <path d="M1082.62,613.498L1082.62,608.189L1084.45,608.189L1084.45,613.498C1084.45,614.416 1084.31,615.13 1084.03,615.642C1083.49,616.58 1082.48,617.048 1080.98,617.048C1079.49,617.048 1078.47,616.58 1077.94,615.642C1077.65,615.13 1077.51,614.416 1077.51,613.498L1077.51,608.189L1079.34,608.189L1079.34,613.498C1079.34,614.091 1079.41,614.525 1079.55,614.798C1079.77,615.283 1080.25,615.525 1080.98,615.525C1081.71,615.525 1082.19,615.283 1082.41,614.798C1082.55,614.525 1082.62,614.091 1082.62,613.498Z" style="fill:rgb(195,191,181);fill-rule:nonzero;stroke:rgb(137,137,137);stroke-width:0.26px;"/>
    </g>
    <g transform="matrix(1.92374,0,0,1.92374,-1412.73,-1009.89)">
        <path d="M1095.33,608.189L1095.33,609.718L1092.75,609.718L1092.75,616.826L1090.93,616.826L1090.93,609.718L1088.34,609.718L1088.34,608.189L1095.33,608.189Z" style="fill:rgb(195,191,181);fill-rule:nonzero;stroke:rgb(137,137,137);stroke-width:0.26px;"/>
    </g>
    <g transform="matrix(1.92374,0,0,1.92374,-1412.73,-1009.89)">
        <rect x="1099.12" y="608.189" width="1.793" height="8.637" style="fill:rgb(195,191,181);fill-rule:nonzero;stroke:rgb(137,137,137);stroke-width:0.26px;"/>
    </g>
    <g transform="matrix(1.92374,0,0,1.92374,-1412.73,-1009.89)">
        <path d="M1109.3,617.066C1108.07,617.066 1107.12,616.73 1106.47,616.058C1105.6,615.234 1105.16,614.046 1105.16,612.496C1105.16,610.914 1105.6,609.726 1106.47,608.933C1107.12,608.261 1108.07,607.925 1109.3,607.925C1110.53,607.925 1111.48,608.261 1112.13,608.933C1113,609.726 1113.44,610.914 1113.44,612.496C1113.44,614.046 1113,615.234 1112.13,616.058C1111.48,616.73 1110.53,617.066 1109.3,617.066ZM1111.01,614.746C1111.42,614.218 1111.63,613.468 1111.63,612.496C1111.63,611.527 1111.42,610.778 1111,610.249C1110.58,609.719 1110.01,609.455 1109.3,609.455C1108.59,609.455 1108.01,609.718 1107.59,610.246C1107.16,610.773 1106.95,611.523 1106.95,612.496C1106.95,613.468 1107.16,614.218 1107.59,614.746C1108.01,615.273 1108.59,615.537 1109.3,615.537C1110.01,615.537 1110.58,615.273 1111.01,614.746Z" style="fill:rgb(195,191,181);fill-rule:nonzero;stroke:rgb(137,137,137);stroke-width:0.26px;"/>
    </g>
    <g transform="matrix(1.92374,0,0,1.92374,-1412.73,-1009.89)">
        <path d="M1124.68,616.826L1122.87,616.826L1119.35,610.691L1119.35,616.826L1117.66,616.826L1117.66,608.189L1119.56,608.189L1123,614.218L1123,608.189L1124.68,608.189L1124.68,616.826Z" style="fill:rgb(195,191,181);fill-rule:nonzero;stroke:rgb(137,137,137);stroke-width:0.26px;"/>
    </g>
    <g transform="matrix(1.92374,0,0,1.92374,-1412.73,-1009.89)">
        <path d="M1132.37,615.578C1132.8,615.578 1133.15,615.531 1133.41,615.437C1133.91,615.257 1134.17,614.923 1134.17,614.435C1134.17,614.15 1134.04,613.929 1133.79,613.773C1133.54,613.621 1133.15,613.486 1132.61,613.369L1131.7,613.164C1130.8,612.96 1130.18,612.74 1129.84,612.501C1129.26,612.103 1128.96,611.48 1128.96,610.632C1128.96,609.859 1129.25,609.216 1129.81,608.705C1130.37,608.193 1131.2,607.937 1132.29,607.937C1133.2,607.937 1133.97,608.178 1134.62,608.661C1135.26,609.143 1135.6,609.843 1135.63,610.761L1133.89,610.761C1133.86,610.242 1133.63,609.873 1133.21,609.654C1132.93,609.509 1132.58,609.437 1132.16,609.437C1131.7,609.437 1131.33,609.531 1131.05,609.718C1130.77,609.906 1130.63,610.167 1130.63,610.503C1130.63,610.812 1130.77,611.042 1131.04,611.195C1131.22,611.296 1131.6,611.416 1132.17,611.552L1133.66,611.91C1134.31,612.066 1134.8,612.275 1135.13,612.537C1135.65,612.943 1135.91,613.531 1135.91,614.3C1135.91,615.089 1135.61,615.745 1135,616.266C1134.4,616.788 1133.55,617.048 1132.44,617.048C1131.32,617.048 1130.43,616.791 1129.79,616.278C1129.15,615.764 1128.82,615.058 1128.82,614.16L1130.55,614.16C1130.6,614.554 1130.71,614.849 1130.87,615.044C1131.16,615.4 1131.66,615.578 1132.37,615.578Z" style="fill:rgb(195,191,181);fill-rule:nonzero;stroke:rgb(137,137,137);stroke-width:0.26px;"/>
    </g>
    <g transform="matrix(1,0,0,1,-375.74,-372.669)">
        <path d="M376.672,472.153L376.672,531.357C376.672,531.357 374.523,560.638 406.73,560.638L488.162,560.638L488.162,506.818L435.041,506.818L435.041,439.306L518.379,497.544L527.41,497.544L527.41,416.425L474.718,416.425L474.718,382.655L546.621,382.655C546.621,382.655 565.002,381.419 565.002,401.249L565.002,459.029L574.125,459.029L574.125,400.78C574.125,400.78 575.363,373.57 545.829,373.57L464.841,373.57L464.841,425.413L517.225,425.413L517.225,484.916L433.678,426.293L424.929,426.293L424.929,516.275L478.168,516.275L478.168,551.612L403.686,551.612C403.686,551.612 386.133,549.561 386.133,534.22L386.133,472.153L376.672,472.153Z" style="fill:rgb(195,191,181);"/>
        <path d="M386.633,471.653L386.633,534.22C386.633,541.66 390.895,545.874 395.151,548.232C399.247,550.5 403.342,551.064 403.717,551.112L477.668,551.112L477.668,516.775L424.429,516.775L424.429,425.793L433.836,425.793L516.725,483.954L516.725,425.913L464.341,425.913L464.341,373.07L545.829,373.07C554.838,373.07 561.026,375.575 565.282,379.061C575.061,387.071 574.642,400.325 574.625,400.79L574.625,459.529L564.502,459.529L564.502,401.249C564.502,395.452 562.906,391.498 560.649,388.809C555.402,382.558 546.654,383.154 546.654,383.154L546.638,383.155L475.218,383.155L475.218,415.925L527.91,415.925L527.91,498.044L518.221,498.044L435.541,440.266L435.541,506.318L488.662,506.318L488.662,561.138L406.73,561.138C396.917,561.138 390.249,558.446 385.716,554.699C375.332,546.116 376.133,531.936 376.172,531.34L376.172,471.653L386.633,471.653ZM376.672,472.153L376.672,531.357C376.672,531.357 374.523,560.638 406.73,560.638L488.162,560.638L488.162,506.818L435.041,506.818L435.041,439.306L518.379,497.544L527.41,497.544L527.41,416.425L474.718,416.425L474.718,382.655L546.621,382.655C546.621,382.655 565.002,381.419 565.002,401.249L565.002,459.029L574.125,459.029L574.125,400.78C574.125,400.78 575.363,373.57 545.829,373.57L464.841,373.57L464.841,425.413L517.225,425.413L517.225,484.916L433.678,426.293L424.929,426.293L424.929,516.275L478.168,516.275L478.168,551.612L403.686,551.612C403.686,551.612 386.133,549.561 386.133,534.22L386.133,472.153L376.672,472.153Z" style="fill:rgb(137,137,137);"/>
    </g>
</svg>
